<?xml version="1.0" encoding="utf-8"?>
<!-- Svg Vector Icons : http://www.onlinewebfonts.com/icon -->
<!DOCTYPE svg PUBLIC "-//W3C//DTD SVG 1.1//EN" "http://www.w3.org/Graphics/SVG/1.1/DTD/svg11.dtd">
<svg version="1.1" xmlns="http://www.w3.org/2000/svg" xmlns:xlink="http://www.w3.org/1999/xlink" x="0px" y="0px" viewBox="0 0 1000 1000" enable-background="new 0 0 1000 1000" xml:space="preserve" fill="#8991A9">
<metadata> Svg Vector Icons : http://www.onlinewebfonts.com/icon </metadata>
<g><path d="M973.5,906.5L567,500L973.5,93.5c20.1-20.1,22.9-49.7,2.8-69.8c-20.1-20.1-49.8-17.3-69.8,2.8L500,433L93.5,26.5C73.5,6.5,43.8,3.7,23.7,23.7c-20,20-17.3,49.7,2.8,69.8L433,500L26.5,906.5c-20.1,20.1-22.8,49.8-2.8,69.8c20.1,20.1,49.7,17.3,69.8-2.8L500,567l406.5,406.5c20,20.1,49.7,22.9,69.8,2.8C996.3,956.2,993.5,926.5,973.5,906.5z"/></g>
</svg>