<?xml version="1.0" encoding="utf-8"?>
<!-- Svg Vector Icons : http://www.onlinewebfonts.com/icon -->
<!DOCTYPE svg PUBLIC "-//W3C//DTD SVG 1.1//EN" "http://www.w3.org/Graphics/SVG/1.1/DTD/svg11.dtd">
<svg version="1.1" xmlns="http://www.w3.org/2000/svg" xmlns:xlink="http://www.w3.org/1999/xlink" x="0px" y="0px" viewBox="0 0 1000 1000" enable-background="new 0 0 1000 1000" xml:space="preserve" fill="#5E7AAC">
<metadata> Svg Vector Icons : http://www.onlinewebfonts.com/icon </metadata>
<g><g transform="translate(0.000000,511.000000) scale(0.100000,-0.100000)"><path d="M6807.3,4250.6c-624-113.5-1195.8-565-1456.7-1157.2c-61.3-136.1-140.7-419.8-152-542.3l-6.8-68.1L2689,2471.7l-2505-11.3l-43.1-54.5c-54.4-68.1-54.4-163.4,0-231.4L184,2120l2505-11.3l2502.8-11.3l6.8-68.1c4.5-36.3,25-145.2,49.9-238.3c220.1-869,1030.2-1497.6,1928.7-1497.6c955.3,0,1799.3,707.9,1960.5,1645.1l27.2,158.8l324.5,11.3c306.3,11.3,326.7,13.6,367.6,65.8c22.7,29.5,43.1,81.7,43.1,115.7s-20.4,86.2-43.1,115.7c-40.8,52.2-61.2,54.5-369.8,65.8l-324.5,11.3l-6.8,56.7c-2.3,31.8-20.4,127.1-40.8,211C8878.9,3776.4,7857.9,4441.2,6807.3,4250.6z M7665,3846.7c256.4-81.7,449.3-201.9,658-410.7c206.5-206.5,326.7-397.1,413-658c52.2-161.1,59-217.8,59-487.8c0-270-6.8-326.7-59-487.8c-86.2-260.9-206.5-451.6-413-658c-206.5-206.5-397.1-326.7-658-413c-161.1-52.2-217.8-59-487.8-59c-270,0-326.8,6.8-487.8,59c-260.9,86.2-451.6,206.5-658,413c-206.5,206.5-326.7,397.1-413,658c-52.2,161.1-59,217.8-59,487.8c-2.3,267.7,6.8,329,56.7,481c88.5,270,208.7,462.9,412.9,667.1c249.6,249.6,535.5,401.6,864.5,462.9C7093.2,3937.5,7460.8,3910.2,7665,3846.7z"/><path d="M2450.7-106c-624-113.4-1195.8-565-1456.7-1157.2c-61.3-136.1-140.7-419.8-152-542.3l-6.8-68.1l-324.5-11.3c-308.6-11.3-329-13.6-369.9-65.8c-54.4-68.1-54.4-163.4,0-231.4c40.9-52.2,61.3-54.4,369.9-65.8l324.5-11.3l6.8-68.1c4.5-36.3,25-145.2,49.9-238.3c220.1-869,1030.1-1497.6,1928.7-1497.6c955.3,0,1799.3,707.9,1960.4,1645.1l27.2,158.8l2502.8,11.3l2502.8,11.3l43.1,54.4c22.7,29.5,43.1,81.7,43.1,115.7s-20.4,86.2-43.1,115.7l-43.1,54.5l-2505,11.3L4806-1873.5l-6.8,56.7c-2.3,31.7-20.4,127.1-40.9,211C4522.4-580.2,3501.3,84.6,2450.7-106z M3308.4-509.9c256.4-81.7,449.3-201.9,658-410.7c206.5-206.5,326.7-397.1,413-658c52.2-161.1,59-217.8,59-487.8c0-270-6.8-326.7-59-487.8c-86.2-260.9-206.5-451.6-413-658c-206.5-206.5-397.1-326.8-658-413c-161.1-52.2-217.8-59-487.8-59c-270,0-326.7,6.8-487.8,59c-260.9,86.2-451.5,206.5-658,413c-206.5,206.5-326.8,397.1-413,658c-52.2,161.1-59,217.8-59,487.8c-2.3,267.7,6.8,329,56.7,481c88.5,270,208.7,462.9,412.9,667.1C1922-668.7,2207.9-516.7,2537-455.4C2736.6-419.1,3104.2-446.3,3308.4-509.9z"/></g></g>
</svg>